{"title":"N-Secure.2010.BRRip.XviD.Ac3.Feel-Free","uid":6433213,"size":1192700431,"categoryP":"video","categoryS":"movies","magnet":"?xt=urn:btih:8dc35106ad9b1eaf4152766e72743fd92f9efd39&amp;dn=N-Secure.2010.BRRip.XviD.Ac3.Feel-Free&amp;tr=udp%3A%2F%2Ftracker.openbittorrent.com%3A80&amp;tr=udp%3A%2F%2Fopen.demonii.com%3A1337&amp;tr=udp%3A%2F%2Ftracker.coppersurfer.tk%3A6969&amp;tr=udp%3A%2F%2Fexodus.desync.com%3A6969","seeders":1,"leechers":0,"uploader":"hiest","files":-1,"time":1306729025,"description":" Full Credits to (Pitic):\n ######## ######## ######## ##          ######## ########  ######## ######\n ##       ##       ##       ##          ##       ##     ## ##       ##       \n ##       ##       ##       ##          ##       ##     ## ##       ##       \n ######   ######   ######   ##          ######   ########  ######   ######   \n ##       ##       ##       ##          ##       ##   ##   ##       ##       \n ##       ##       ##       ##          ##       ##    ##  ##       ##       \n ##       ######## ######## ########    ##       ##     ## ######## ######\t\n\n \n Genre:Drama \n Language:English\n IMDb:\n &lt;a href=&quot; http://www.imdb.com/title/tt1289419/&quot; rel=&quot;nofollow&quot; target=&quot;_NEW&quot;&gt; http://www.imdb.com/title/tt1289419/&lt;/a&gt;\n Source:BluRay.x264.DTS-HDChina\n\n Format : AVI\n Format/Info : Audio Video Interleave\n File size : 1.11 GiB\n Duration : 1h 45mn\n Overall bit rate : 1 508 Kbps\n\n Video\n ID : 0\n Format : MPEG-4 Visual\n Format profile : Advanced Simple@L5\n Format settings, BVOP : Yes\n Format settings, QPel : No\n Format settings, GMC : No warppoints\n Format settings, Matrix : Default (H.263)\n Codec ID : XVID\n Codec ID/Hint : XviD\n Duration : 1h 45mn\n Bit rate : 1 050 Kbps\n Width : 640 pixels\n Height : 272 pixels\n Display aspect ratio : 2.35:1\n Frame rate : 23.976 fps\n Color space : YUV\n Chroma subsampling : 4:2:0\n Bit depth : 8 bits\n Scan type : Progressive\n Bits/(Pixel*Frame) : 0.252\n Stream size : 792 MiB (70%)\n Writing library : XviD 1.2.1 (UTC 2008-12-04)\n\n Audio\n ID : 1\n Format : AC-3\n Format/Info : Audio Coding 3\n Mode extension : CM (complete main)\n Codec ID : 2000\n Duration : 1h 45mn\n Bit rate mode : Constant\n Bit rate : 448 Kbps\n Channel(s) : 6 channels\n Channel positions : Front: L C R, Side: L R, LFE\n Sampling rate : 48.0 KHz\n Bit depth : 16 bits\n Stream size : 338 MiB (30%)\n Alignment : Aligned on interleaves\n Interleave, duration : 42 ms (1.00 video frame)\n Interleave, preload duration : 512 ms\n\n Plot:\n N-Secure is a no holds-barred thrilling drama mixed with murder, mayhem \n and  manipulation among affluent professionals.\n\n\n\n\n\n\n ----------------------------------                            \n &lt;a href=&quot; http://thepiratebay.se/user/hiest&quot; rel=&quot;nofollow&quot; target=&quot;_NEW&quot;&gt; http://thepiratebay.se/user/hiest&lt;/a&gt;\n ----------------------------------\n\n\n\n\n\n\n Screen Shots:\n\n &lt;a href=&quot; http://www.pix2links.com/images/36892732181506940621.png&quot; rel=&quot;nofollow&quot; target=&quot;_NEW&quot;&gt; http://www.pix2links.com/images/36892732181506940621.png&lt;/a&gt;\n\n &lt;a href=&quot; http://www.pix2links.com/images/43352772322232190797.png&quot; rel=&quot;nofollow&quot; target=&quot;_NEW&quot;&gt; http://www.pix2links.com/images/43352772322232190797.png&lt;/a&gt;\n\n &lt;a href=&quot; http://www.pix2links.com/images/27941527167425832404.png&quot; rel=&quot;nofollow&quot; target=&quot;_NEW&quot;&gt; http://www.pix2links.com/images/27941527167425832404.png&lt;/a&gt;\n\n &lt;a href=&quot; http://www.pix2links.com/images/81121141458002048672.png&quot; rel=&quot;nofollow&quot; target=&quot;_NEW&quot;&gt; http://www.pix2links.com/images/81121141458002048672.png&lt;/a&gt;\n\n \n Full Credits to (Pitic):\n ######## ######## ######## ##          ######## ########  ######## ######\n ##       ##       ##       ##          ##       ##     ## ##       ##       \n ##       ##       ##       ##          ##       ##     ## ##       ##       \n ######   ######   ######   ##          ######   ########  ######   ######   \n ##       ##       ##       ##          ##       ##   ##   ##       ##       \n ##       ##       ##       ##          ##       ##    ##  ##       ##       \n ##       ######## ######## ########    ##       ##     ## ######## ######\t","torrent":{"xt":"urn:btih:8dc35106ad9b1eaf4152766e72743fd92f9efd39","amp;dn":"N-Secure.2010.BRRip.XviD.Ac3.Feel-Free","amp;tr":["udp%3A%2F%2Ftracker.openbittorrent.com%3A80","udp%3A%2F%2Fopen.demonii.com%3A1337","udp%3A%2F%2Ftracker.coppersurfer.tk%3A6969","udp%3A%2F%2Fexodus.desync.com%3A6969"],"infoHash":"8dc35106ad9b1eaf4152766e72743fd92f9efd39","infoHashBuffer":{"type":"Buffer","data":[141,195,81,6,173,155,30,175,65,82,118,110,114,116,63,217,47,158,253,57]},"announce":[],"urlList":[]}}